<?xml version="1.0" encoding="UTF-8"?>
<svg id="Lag_1" data-name="Lag 1" xmlns="http://www.w3.org/2000/svg" viewBox="0 0 560.9 340.31">
  <defs>
    <style>
      .cls-1 {
        fill: none;
        stroke: #ff0000;
        stroke-miterlimit: 10;
        stroke-width: 5px;
      }
    </style>
  </defs>
  <path class="cls-1" d="M433.78,93.94c-.36,.81-.55-.79,0,0,1.09,1.56,2.27,5.51,3.21,7.17,3.03,5.38,4.73,11.26,6.62,17.09,2.11,6.52,3.96,13.14,6.69,19.46,2.18,5.05,4.09,10.22,6.07,15.35,1.38,3.59,3.54,6.72,6.2,9.38,5.28,5.28,10.36,10.73,15.17,16.45,6.69,7.95,12.87,16.29,17.45,25.66,2.97,6.09,6.49,11.91,9.15,18.12,3.08,7.17,7.18,13.75,10.84,20.59,5.85,10.96,12.44,21.48,18.64,32.24,3.6,6.26,7.3,12.52,11.82,18.18,2.37,2.97,4.57,6.07,7.02,8.99,2.17,2.58,3.94,5.56,5,8.71,1.11,3.31,1.02,6.92-.52,10.25-.82,1.76-2.34,2.58-4.25,2.76-5.6,.53-11.19,1.14-16.79,1.59-6.12,.49-12.17,1.59-18.27,2.16-5.92,.55-11.81,1.47-17.77,1.44-3.77-.02-7.54-.23-11.26-.95-1.92-.37-3.79,.36-5.71,.19-1.04-.09-2.08-.11-3.09-.46-1.36-.47-2.75-.49-4.17-.16-1.97,.46-3.94,.49-5.93-.08-1.62-.47-3.34-.03-5.02-.32-1.48-.26-2.92-.68-4.4-.93-.92-.16-1.28-.84-1.39-1.64-.16-1.21-.59-2.25-1.42-3.16-.75-.83-.99-1.82-.52-2.91,.1-.24,.15-.53,.12-.79-.22-1.76,.7-2.86,2.49-2.96,1.12-.06,2.18,.24,3.2,.63,3.62,1.37,7.03,.19,10.33-1.04,1.52-.57,3-1.29,4.6-1.62,1.65-.34,3.11-1.04,4.33-2.18,.88-.82,1.9-1.18,3.08-1.26,2.6-.18,4.74-1.56,7.03-2.54-.05-.13-.09-.26-.14-.39-2.61,.29-5.22,.59-7.83,.88-3.88,.43-7.72,.33-11.47-.91-.98-.32-2-.53-2.94-.08-2.99,1.46-6.09,1.32-9.22,.79-1.43-.24-2.9-.48-4.24-1.01-1.88-.74-3.22-2.21-3.91-4.12-.45-1.24,1.35-3.36,2.97-3.46,2.86-.17,5.64-.96,8.52-.99,1.21-.01,2.43-.51,3.31-1.45,.62-.66,1.32-.95,2.18-.9,4.42,.31,8.26-1.13,11.93-3.52,3.96-2.59,8.18-4.73,12.45-6.79,2.98-1.44,5.56-3.61,8.52-5.14,1.18-.61,1.42-2.24,.66-3.37-3.53-5.25-7.12-10.45-11.58-14.98-3.09-3.14-6.11-6.36-9.14-9.57-7.11-7.54-13.84-15.43-20.93-22.99-3.49-3.72-6.54-7.83-9.17-12.2-2.26-3.76-5.37-6.75-8.24-9.96-.85-.95-1.72-1.9-2.32-3.02-1.23-2.3-2.91-4.18-5-5.68-3.36-2.41-5.97-5.59-8.93-8.41-1.02-.97-2.03-1.96-3.11-2.87-4.11-3.47-6.98-7.85-9.35-12.61-1.46-2.94-3.32-5.64-4.9-8.5-2.48-4.49-6.17-7.96-9.42-11.79-3.13-3.69-6.83-6.87-10.61-9.76-4.43-3.39-7.88-7.63-11.85-11.4-.55-.52-.93-1.23-1.35-1.88-.32-.51-.63-1.02-1.2-1.27-1.48-.65-1.87-1.78-2.04-3.36-.24-2.29-1.6-4.23-3.08-5.93-1.07-1.23-2-2.45-2.36-4.06-.22-1-.91-1.78-1.37-2.66-.04-.08-.1-.2-.16-.21-2.48-.45-1.8-2.78-2.36-4.24-.89-2.32-1.37-3.02-3.81-3.39-.65-.1-1.16-.13-1.48,.56-.43,.91-1.42,.91-2.18,1.26-1.68,.79-1.73,.82-1.13,2.54,.28,.81,.56,1.65,.97,2.4,.96,1.76,.95,3.58,.38,5.42-1.9,6.2-5.04,11.76-8.76,17.04-1.26,1.78-2.48,3.48-4.26,4.87-2.18,1.69-3.99,3.84-5.63,6.1-3.85,5.3-8.73,9.6-13.47,14.06-6.16,5.8-12.62,11.26-19.02,16.79-7.39,6.38-13.92,13.6-20.3,20.95-3.43,3.95-6.87,7.89-10.3,11.84-3.23,3.73-7.41,5.71-11.93,7.06-2.57,.77-4.93,1.94-7.19,3.22-2.05,1.17-3.92,1.2-5.98,.44-2.1-.77-4.11-1.73-6.05-2.84-.45-.26-.97-.68-1.49-.2-.48,.44-.24,1.03-.08,1.54,.58,1.91,1.06,3.87,1.81,5.73,2,4.97-2.76,9.56-7,8.7-1.19-.24-2.07,.24-2.58,1.31-.8,1.69-2.14,2.41-3.95,2.35-.58-.02-1.07,.13-1.45,.61-1.25,1.6-2.92,2.59-4.84,3.14-.94,.27-1.13,.76-.86,1.62,.22,.69,.43,1.4,.54,2.11,.33,2.16-.93,3.99-3.05,4.48-1.3,.3-2.63,.38-3.93,.04-3.55-.93-7.22-.92-10.83-1.26-2.05-.19-4.09,.31-5.79,1.62-2,1.55-4.27,1.89-6.7,1.64-3.62-.37-7.24-.72-10.86-1.09-.62-.06-1.03,.26-1.42,.67-2.85,3.01-5.55,6.11-7.8,9.63-1.69,2.65-4.3,4.54-6.54,6.74-3.37,3.31-6.93,6.43-10.15,9.91-4.08,4.41-8.91,7.94-14.15,10.81-4.3,2.36-8.8,4.38-13.23,6.51-1.87,.9-3.41,2.13-4.83,3.67-2,2.17-4.55,3.75-6.89,5.56-2.55,1.98-5.3,3.64-7.79,5.74-1.65,1.39-3.88,2.15-5.92,3.01-1.33,.56-2.45,1.4-3.61,2.18-3.92,2.61-8.37,4.21-12.42,6.55-2.08,1.2-4.17,2.42-6.26,3.61-1.4,.8-2.63,2.07-3.14,3.77-.13,.43-.38,.73-.79,.87-1.42,.51-2.65,1.38-3.96,2.11-1.65,.91-3.45,1.12-5.26,1.27-2.71,.22-5.43,.38-8.15,.52-4.09,.21-8.18,.4-12.26,.57-2.5,.1-4.99-.26-7.48-.38-.32-.02-.65-.09-.94,0-3.82,1-7.8,1.18-11.55,2.62-2.22,.86-4.68,1.13-7.05,1.56-2.1,.38-4.03-.06-5.67-1.56-1.2-1.1-2.67-1.48-4.29-1.42-1.09,.04-2.2-.09-3.27,.03-1.75,.19-2.9-.85-4.15-1.75-.27-.19-.42-.5-.4-.83,.08-1.47-.59-2.65-1.36-3.81-.58-.87,.06-2.06,1.42-2.4,1.14-.28,2.33-.37,3.5-.5,.56-.06,1.13-.13,1.47-.61,1.23-1.75,3.11-1.97,4.97-2.07,8.51-.46,16.87-2.05,25.21-3.64,2.57-.49,4.98-1.81,7.56-2.3,3.38-.65,6.34-2.65,9.77-2.93,2.29-.18,4.28-1.12,6.36-1.9,.64-.24,.83-.59,.57-1.26-.64-1.64-1.4-2.22-3.18-2.22-3.64-.01-7.28-.01-10.93,0-1.15,0-2.26-.18-3.35-.55-1.29-.44-2.6-.86-2.05-2.72,.06-.21-.11-.54-.26-.74-.68-.92-.25-1.53,.55-2.01,.58-.35,.95-.64,.74-1.48-.24-1.02,.66-1.96,1.91-1.98,1.9-.03,3.71-.16,5.25-1.48,.27-.23,.78-.23,1.18-.22,5.98,.08,11.86-.96,17.78-1.54,4.95-.48,9.64-2.04,14.51-2.79,.49-.08,1-.22,1.34-.62,3.23-3.74,7-6.99,9.76-11.17,3.06-4.63,6.38-9.07,9.57-13.61,2.98-4.25,6.42-8.14,9.76-12.09,2-2.36,3.64-5.01,5.84-7.2,4.41-4.4,9.4-8.01,14.86-11,3.23-1.77,6.48-3.52,9.5-5.65,1.12-.79,1.88-1.47,1.42-3.2-.38-1.44-.65-2.88-1.33-4.23-.65-1.29-1.13-2.51-.87-4.13,.22-1.39-.44-2.93-.8-4.39-.38-1.53,0-2.98,.33-4.44,.14-.62,.47-.74,1.11-.51,1.19,.43,1.94,.03,1.93-1.23-.04-6.2,3.09-11.45,5.33-16.88,1.48-3.58,4.67-6.18,8.32-7.91,2.7-1.28,5.26-2.79,7.8-4.37,3.61-2.25,7.64-3.36,11.86-3.73,2.47-.21,4.75-1.27,7.21-1.46,.41-.03,.68-.32,.71-.72,.24-2.95,2.17-5.08,4.02-6.95,3.52-3.55,6.49-7.6,10.22-10.95,.89-.8,1.45-1.97,2.13-2.98,.92-1.35,2.02-2.36,3.67-2.87,2.72-.84,4.86-2.47,6.42-4.95,2.78-4.42,5.61-8.81,8.01-13.47,.76-1.48,2.09-2.51,3.33-3.59,4.51-3.92,8.84-7.97,11.82-13.27,.87-1.54,1.98-2.95,3-4.4,.66-.93,1.25-1.88,1.52-3.02,.27-1.11,.94-1.96,1.95-2.52,2.05-1.13,3.35-3.04,4.88-4.72,.35-.38,.51-.85,.5-1.38-.05-1.77,.94-2.81,2.5-3.32,.94-.3,1.28-.85,1.37-1.78,.14-1.53,.92-2.79,2.38-3.21,3.7-1.07,5.37-4.29,7.63-6.89,.47-.54,.57-1.17,.51-1.91-.23-2.82,.9-4.54,3.58-5.55,1.24-.47,2.21-1.28,2.96-2.33,4.81-6.74,9.46-13.6,14.01-20.51,5.18-7.86,11.04-15.13,18.36-21.14,2.32-1.9,4.48-3.98,6.48-6.24,1.56-1.76,3.37-3.32,5.09-4.93,1.37-1.28,2.21-3.13,4.12-3.84,.33-.13,.63-.52,.94-.51,2.1,.07,3.42-1.36,4.84-2.51,2.59-2.09,5.73-3.14,8.56-4.78,.55-.32,1.15-.56,1.71-.86,7.08-3.86,14.82-5.53,22.7-6.35,8.67-.91,17.04,.77,25.03,4.27,6.23,2.73,11.89,6.32,15.66,12.11,2.95,4.54,6.14,8.92,8.97,13.53,4.4,7.16,9.6,13.7,15.01,20.1,0,0,9.53,27.89,10.51,41.18Z"/>
</svg>