<?xml version="1.0" encoding="UTF-8"?>
<svg id="Lag_1" data-name="Lag 1" xmlns="http://www.w3.org/2000/svg" viewBox="0 0 488.45 156.75">
  <defs>
    <style>
      .cls-1 {
        fill: none;
        stroke: #ff0000;
        stroke-miterlimit: 10;
        stroke-width: 5px;
      }
    </style>
  </defs>
  <path class="cls-1" d="M142.55,78.35c2.34,.29,3.81,2.34,5.58,3.67,2.48,1.87,5.16,3.09,8.26,3.26,3.16,.18,3.16,.13,4.13,3.23,.06,.18,.14,.35,.2,.53,1.63,4.89,3.29,9.75,4.08,14.91,.99,6.41,2.19,12.76,1.79,19.29-.06,1.03-.23,1.78-1.37,1.89-3.83,.36-7.6,1.27-11.46,1.23-4.19-.04-8.36-.08-12.34,1.57-1.28,.53-2.67,.66-3.99,1.27-2.07,.96-3.53,2.74-5.57,3.72-.99,.47-.84,1.76,.16,2.24,.41,.2,.9,.25,1.36,.31,3.94,.48,7.9,.13,11.84,.22,1.03,.02,1.97,.08,2.53,1.14,.24,.46,.72,.6,1.21,.58,3.18-.09,6.4,.4,9.54-.57,1.42-.44,2.9-.21,4.35-.22,.5,0,.95,.21,.46,.75-.9,.98-1.69,2.05-3.32,2.06-3.8,.03-7.41,.96-10.89,2.55-2.67,1.22-5.61,1.6-8.51,1.76-1.71,.1-3.36,.15-4.93,.91-1.24,.6-2.56,.91-3.95,.94-1.35,.03-2.6,.42-3.7,1.21-.47,.34-.98,.55-1.52,.72-1.05,.33-2.22,.54-1.61,2.15,.08,.22-.24,.58-.36,.88-.54,1.34,.44,2.69,1.85,2.67,1.69-.02,3.47-.84,5.03-.19,2.27,.95,4.61,.81,6.91,.96,3.68,.23,7.1-1.21,10.64-1.93,.61-.12,1.2-.48,1.85-.3,.03,.49-.28,.67-.5,.9-.45,.45-.63,.92-.24,1.5,.37,.54,.85,.69,1.47,.53,.41-.11,.82-.22,1.24-.29,4.7-.87,9.26-2.45,14.09-2.74,2.62-.16,5.21-.69,7.74-1.43,1.29-.38,2.23-1.05,2.96-2.19,.86-1.33,.67-2.9,1.23-4.3,.95-2.35,1.75-4.76,2.04-7.31,.37-3.25,.96-6.5,1.61-9.69,.99-4.87,2.26-9.68,3.01-14.61,1.15-7.61,2.58-15.18,2.36-22.92-.03-1.22,.53-1.73,1.72-1.61,1.31,.13,2.63,.2,3.93,.42,5.73,.98,11.49,1.16,17.08-.42,5.27-1.5,10.66-2.13,16.02-3.04,2.51-.43,5.11-.83,7.6,.49,1.87,.98,3.88,1.68,5.78,2.61,10.37,5.06,21.25,8.32,32.75,9.54,6.87,.73,13.74,1.44,20.64,1.86,4.04,.25,8.08,.54,12.12,.27,7.45-.49,14.84-.11,22.16,1.35,1.2,.24,2.41,.36,3.63,.44,2.15,.15,4.21-.63,6.27-.64,3.17-.02,6.26-.57,9.4-.72,2.1-.1,4.23-.57,6.3-.38,3.5,.32,6.96,1.07,10.29,2.31,3.83,1.43,7.64,2.95,11.54,4.18,7.95,2.51,16.23,3.67,24.34,5.52,10.35,2.36,20.81,4.22,30.94,7.54,3.11,1.02,6.3,1.87,9.36,3.02,3.42,1.28,7.16,1.9,10.15,4.13,2.71,2.01,5.85,2.68,8.97,3.53,3.41,.93,6.73,2.11,9.87,3.74,1.6,.83,2.55,1.96,3,3.92,.85,3.68,2.7,7.01,5.25,9.85,1.2,1.34,2.75,1.36,4.19,.31,1.79-1.32,3.38-2.84,4.58-4.74,1.09-1.72,1.03-2.73-.17-4.39-1.13-1.55-1.77-3.25-1.89-5.21-.11-1.7-.78-3.36-.17-5.1,.11-.32-.2-.8-.35-1.19-.95-2.46-3.14-3.66-5.17-5-.47-.31-.99-.52-1.22-1.09-1.49-3.85-4.64-5.73-8.33-6.97-1.47-.49-2.9-1.09-4.25-1.88-1.12-.65-1.77-1.62-2.16-2.84-1.14-3.57-1.92-7.27-3.83-10.55-1.76-3.03-3.92-5.55-7.91-5.31-1.27,.08-2.27-.48-3.11-1.37-.74-.79-1.53-1.53-2.55-1.97-2.63-1.14-5.58-.61-7.6,1.64-1.83,2.05-3.95,2.62-6.58,2.16-2.3-.4-4.56-.8-6.83-1.46-3.68-1.07-7.18-2.53-10.59-4.16-9.23-4.38-17.87-9.84-26.63-15.04-7.66-4.55-15.85-6.65-24.68-6.91-6.39-.19-12.76,.84-19.16,.08-3.15-.38-6.35-.42-9.52-.66-4.16-.31-7.94-1.9-11.62-3.7-8.8-4.29-17.69-8.36-27.03-11.32-8.76-2.77-16.8-6.89-23.86-12.74-5.21-4.33-10.7-8.11-16.94-10.77-5.93-2.53-12.07-4.22-18.57-4.26-5.78-.04-11.49,.16-17.12,1.96-3.7,1.18-7.48,2.18-11.22,3.29-3.07,.91-6.16,1.87-9.35,2.02-1.97,.09-3.82-.45-5.96,.2-2.54,.76-5.43,.6-8.2,.52-5.21-.15-10.29-.88-15.25-2.47-2.04-.65-4.02-1.47-6.22-1.72-1.59-.19-3.25-.37-4.77-1.11-3.02-1.47-6.32-2.1-9.54-2.95-.87-.23-1.72-.5-2.46-1.02-2.05-1.41-4.41-2.31-6.37-3.88-.83-.66-1.84-1.19-2.85-1.52-5.16-1.7-10.21-3.78-15.74-4.21-3.2-.25-6.36-.39-9.56-.08-3.54,.33-7.05,1.24-10.65,.62-.8-.14-1.58,.1-2.33,.41-.91,.38-1.84,.72-2.78,1-4.42,1.33-9.05,1.61-13.52,2.72l-4.75,.92c-3.31,.83-6.69,1.05-10.08,.76-1.13-.1-2.11-.66-2.97-1.48-1.55-1.49-2.94-3.1-4.29-4.77-.57-.71-.53-1.85-1.32-2.3C22.22-11,6.48,16.99,6.48,16.99c-1.99,2.6-3.18,5.47-3.46,8.77-.19,2.28-.67,4.54-1.01,6.81v1.97c.1,.45,.21,.91,.31,1.36,.57,2.86,1.04,5.77,3.01,8.09,2.67,3.15,5.36,6.28,7.66,9.74,.28,.42,.74,.71,1.11,1.07,2.26,2.15,5.17,3.19,7.87,4.6,1.5,.78,2.88,.78,4.47,.49,2.17-.41,4.16,.02,5.78,1.77,1.56,1.69,3.2,3.32,4.89,4.88,2.2,2.03,4.3,1.8,5.88-.66,.79-1.23,1.65-1.35,2.84-.73,.95,.49,1.94,1.28,3.03,.94,2.07-.65,4.28-.38,6.32-1.09,.98-.34,1.93-.32,2.91-.04l4.58,.69c1.14-.19,1.96-.85,2.59-1.79,.77-1.15,1.84-1.58,3.16-1.16,.72,.23,1.03-.07,1.02-.69,0-3.27,.8-6.56-.3-9.79-.34-1.01,.03-1.53,.99-1.75,.64-.15,1.29-.4,1.93-.38,1.26,.03,2.36-.31,3.48-.91,1.11-.59,2.34-.74,3.67-.7,4.38,.13,6.62,3.27,8.83,6.25,0,0,24.12,19.88,54.52,23.63Z"/>
</svg>