<?xml version="1.0" encoding="UTF-8"?>
<svg id="Lag_1" data-name="Lag 1" xmlns="http://www.w3.org/2000/svg" viewBox="0 0 46.61 106.22">
  <defs>
    <style>
      .cls-1 {
        fill: none;
        stroke: #ff0000;
        stroke-miterlimit: 10;
        stroke-width: 1px;
      }
    </style>
  </defs>
  <path class="cls-1" d="M46.22,34.36c0-.52-.03-1.05-.14-1.55-.35-1.67-.56-3.36-.62-5.07-.05-1.43-.22-2.84-.63-4.23-.49-1.66-1.36-2.92-3.1-3.43-.65-.19-1.31-.38-1.93-.64-.86-.35-1.88-.39-2.46-1.3-.08-.12-.24-.16-.38-.18-.94-.18-1.66-.61-1.94-1.61-.24-.86-.51-1.72-.03-2.57,.38-.66,.71-1.31,.6-2.11-.04-.29,.07-.58,.49-.56,.24,.01,.36-.15,.44-.35,.22-.57,.39-1.15,.53-1.74,.1-.43,.09-.83-.25-1.17-.06-.06-.1-.18-.1-.28,0-.87-.21-1.72-.17-2.59,.03-.54-.16-1.02-.41-1.49-.17-.32-.32-.66-.55-.93-.28-.33-.35-.83-.74-1.05-1.08-.58-2.11-1.37-3.46-1.09-.6,.13-1.24-.04-1.83,.25-.47,.23-.96,.41-1.43,.61-.36,.16-.66,.42-.75,.79-.11,.49-.35,.89-.62,1.27-.28,.39-.44,.81-.51,1.28-.15,.99-.38,1.96-.3,2.97,.02,.21-.01,.41-.2,.55-.39,.28-.37,.67-.26,1.06,.11,.39,.25,.77,.4,1.15,.07,.17,.11,.33,.1,.52l.57,.38s-.41,.91,.21,1.26c.89,.5,1.86,1.47,1.22,3.16-.65,1.72-2.09,2.56-3.13,2.96-.08,.09-.2,.16-.36,.22-1.15,.4-2.35,.6-3.5,.98-1.04,.34-2.06,.77-2.52,1.88-.58,1.41-.98,2.87-1.01,4.41-.02,1.3-.1,2.6-.32,3.88-.26,1.51-.66,2.99-.56,4.55,.07,.96,.08,1.93,.09,2.9,0,1.38,.23,2.65,1.27,3.7,.66,.66,1.01,.8,1.79,.3,.22-.14,.43-.29,.65-.44,.59-.4,1.22-.71,1.88-.99,.13-.06,.28-.12,.41-.01,.14,.11,.16,.28,.1,.44-.11,.31-.2,.64-.38,.92-.61,.96-.97,2.05-1.49,3.06-.3,.59-.44,1.26-.89,1.76-.56,.63-.82,1.39-.99,2.19-.05,.26-.12,.43-.41,.46-.25,.03-.45,.18-.66,.31-.8,.48-1.53,1.08-2.42,1.42-2.78,1.05-5.44,2.33-7.9,4.03-2.29,1.58-4.33,3.45-6.29,5.43-1.62,1.64-1.11,5.34,1.02,6.18,.24,.1,.47,.22,.71,.33,1.07,.45,2.17,.68,3.34,.39,1.04-.26,2.12-.25,3.19-.3,1.4-.07,2.79-.21,4.12-.71,1.49-.57,3.05-.88,4.62-1.11,.9-.13,1.81-.15,2.72-.21,1.23-.08,2.48-.07,3.6,.64,.47,.3,.8,.66,.96,1.22,.45,1.56,.54,3.19,.95,4.76,.19,.75,.2,1.51-.05,2.26-.1,.29-.02,.53,.34,.55,.33,.01,.4,.21,.39,.49,0,.48-.05,.96,.05,1.43,.48,2.26,.46,4.49-.06,6.75-.37,1.6-.45,3.23-.18,4.87,.32,1.93,.53,3.86,.38,5.82-.13,1.65-.03,3.33-.66,4.92-.12,.31-.15,.64-.08,.98,.04,.17,.02,.35,0,.52-.05,.78-.26,1.53-.26,2.32,0,.5,.09,1.01,0,1.51-.11,.56-.14,1.11-.07,1.68,.04,.32,.2,.52,.52,.53,.42,.02,.83,.04,1.25-.09,.64-.2,1.25-.35,1.96-.12,.89,.29,1.77-.11,2.2-.79,.08-.13,.12-.24,.08-.4-.13-.63-.48-1.09-.99-1.47-.45-.34-.9-.73-1.04-1.3-.13-.53-.27-1.08,.06-1.63,.15-.25,.12-.58,.08-.89-.06-.41-.22-.84-.07-1.24,.32-.84,.44-1.73,.79-2.57,.35-.84,.64-1.71,.9-2.58,.41-1.37,.76-2.76,1.17-4.13,.66-2.21,1.02-4.45,.9-6.75-.06-1.1-.19-2.19-.23-3.29-.09-1.94,.47-3.78,1.01-5.61,.93-3.16,2.27-6.19,3.28-9.33,.73-2.28,1.19-4.58,1.08-6.99-.07-1.52,.02-3.03,.33-4.53,.23-1.14,.29-2.33,.24-3.49-.09-1.81-.75-3.55-.71-5.4,.01-.64-.09-1.32-.13-1.94,0-.49,0-.96,0-1.42,0-.24,.08-.33,.31-.18,1.23,.81,2.64,1.32,3.8,2.24,.49,.39,.89,.32,1.35-.12,.36-.35,.72-.71,1.07-1.08,.11-.11,.23-.25,.26-.39,.15-.71,.4-1.39,.4-2.13,0-1.29,0-2.58-.01-3.86Z"/>
  <path class="cls-1" d="M9.17,62.88s2.62-1.91,5.5-1.91,6.67-.52,10.27-1.05,4.19-.46,4.19-.46c0,0,.92,.52,.72,2.75s-1.37,6.54-1.11,7.79-1.5,4.5-1.5,4.5"/>
  <path class="cls-1" d="M22.26,27.73s.07,5.1,0,6.41,6.74-4.51,6.8-5.17,1.9-8.57,1.9-8.57c0,0,1.37-1.05,1.83,.72s.85,6.28,1.24,6.93,.98,3.01,2.29,3.47,3.6,2.81,5.3,3.21c0,0-1.37-.07-1.24-6.8"/>
  <path class="cls-1" d="M39.03,39.87s-3.43-3.7-3.62-4.22-4.12-4.44-3.86-5.1c0,0-.85,1.3-1.18,1.57s-3.4,3.86-3.86,4.58-4.27,3.33-4.27,3.33"/>
</svg>