<?xml version="1.0" encoding="UTF-8"?>
<svg id="Lag_1" data-name="Lag 1" xmlns="http://www.w3.org/2000/svg" viewBox="0 0 317.1 263.37">
  <defs>
    <style>
      .cls-1 {
        fill: none;
        stroke: #ff0000;
        stroke-miterlimit: 10;
        stroke-width: 5px;
      }
    </style>
  </defs>
  <path class="cls-1" d="M174.92,174.41l18.57,9.24c.59-.22,1.11-.19,1.71,.07,2.67,1.16,5.23,2.54,7.83,3.85,4.03,2.03,7.92,4.3,11.42,7.18,5.05,4.15,10.67,7.29,16.88,9.35,1.72,.57,3.33,1.35,4.82,2.44,3.53,2.58,6.72,5.55,9.81,8.63,2.57,2.58,5.35,4.87,8.59,6.55,1.1,.57,2.21,1.16,3.16,1.98,2.21,1.89,4.36,3.85,6.64,5.64,3.36,2.63,6.84,5.11,10.23,7.7,2.12,1.62,3.85,3.57,5.03,6.02,.74,1.54,1.66,3,3.09,4.07,.99,.74,1.44,1.95,2.28,2.84,.08,.09,.1,.29,.07,.42-.16,.9,.24,1.67,.46,2.5,.24,.89,.69,1.76,.39,2.76-.48,1.6-.09,3.01,.94,4.33,1.27,1.64,2.79,2.64,4.95,2.33,1.94-.28,3.88-.44,5.84-.39,.12,0,.23-.05,.35-.06,1.91-.19,3.49-1.31,5.24-1.92,.69-.24,.78-.89,.59-1.5-.17-.53-.16-1.03-.12-1.57,.08-1.25-.05-2.45-1.26-3.21-1.64-1.02-2.33-2.89-3.69-4.17-.42-.39-.2-1.05-.54-1.47-1.62-2-3.12-4.13-5.4-5.48-.77-.45-1.28-1.14-1.63-1.95-.63-1.44-1.71-2.54-2.99-3.33-2.48-1.55-4.37-3.67-5.93-6.05-2.6-3.97-5.36-7.82-8.32-11.53-1.75-2.2-3.37-4.51-5.14-6.69-1.45-1.8-2.93-3.58-4.4-5.36-2.47-3.01-5.15-5.8-8.18-8.24-2.8-2.26-5.88-4.1-8.92-6.01-1.78-1.12-3.57-2.23-5.23-3.51-2.67-2.07-5.04-4.52-7.93-6.3-2.21-1.36-3.73-3.29-5.11-5.36-1.27-1.9-2.55-3.76-4.16-5.42-.81-.83-2.19-1.63-1.55-3.26,.02-.04,0-.12-.04-.17-.83-1.22-1.52-2.72-2.95-3.22-1.84-.64-2.83-2.06-3.9-3.44-.96-1.24-1.73-2.62-2.58-3.95-.2-.32-.45-.58-.83-.59-.97-.03-1.5-.74-2.14-1.3-1.5-1.33-2.37-3.16-3.74-4.6-.15-.16-.26-.33-.22-.56,.26-1.35-.58-1.94-1.63-2.39-.68-.3-1.36-.6-2.04-.89-.23-.1-.49-.21-.53-.44-.27-1.32-1.36-2.13-1.98-3.23-.82-1.46-2-2.58-3.41-3.54-1.37-.94-3.36-1.35-3.62-3.5-.03-.24-.35-.47-.56-.67-.64-.64-1-1.36-.95-2.3,.06-.98-.17-1.89-1.03-2.52-.32-.24-.46-.63-.56-1-.32-1.13-.75-2.18-1.51-3.1-.15-.18-.26-.42-.22-.66,.3-1.89-.16-3.8,.17-5.68,.17-.95,.23-1.9,.11-2.84-.26-1.89-.24-3.78-.15-5.67,.19-3.98-.58-7.93-.34-11.83-.26-4.36,.5-8.61,.36-12.89-.06-1.88,.24-3.74,.86-5.51,.61-1.74,1.33-3.43,2.95-4.54,.51-.35,1.06-.71,1.44-1.18,.46-.58,.85-.54,1.45-.27,.72,.33,1.46,.57,2.31,.42,1.58-.27,3.1,.06,4.6,.57,.73,.25,1.5,.42,2.28,.28,.51-.09,1-.06,1.5,.04,1.57,.34,3.18,.38,4.78,.48,5.4,.34,10.46-1.21,15.42-3.08,2.2-.83,4.35-1.71,6.68-2.1,1.71-.29,3.39-.12,5.03,.25,1.87,.42,3.62,1.36,5.59,1.35,1.91-.01,3.78,.35,5.67,.46,3.22,.18,6.42,.68,9.67,.31,6.2-.7,12.34-1.59,18.24-3.78,1.31-.49,2.76-1.07,4.21-.27,2.29,1.25,4.67,1.31,7.16,.73,1.32-.31,2.63-.78,4-.79,1.3-.01,2.54-.17,3.67-.87,.23-.14,.51-.23,.77-.17,1.39,.29,2.78-.03,4.17-.04,2.17-.01,4.27-.65,6.42-.89,1.59-.17,3.14-.76,4.8-.76,1.12,0,2.25-.25,3.05-1.21,.46-.56,.47-1.06,.06-1.69-.68-1.05-1.76-.94-2.71-.95-4.11-.05-8.15-.81-12.18-1.45-2.89-.46-5.8-.82-8.66-.61-4.11,.31-8.16,.33-12.22-.33-1.28-.21-2.59-.22-3.88-.46-3.15-.57-6.3-1.15-9.53-1.12-1.27,.01-2.56-.08-3.81-.29-4.77-.79-9.53-1.63-14.29-2.49-3.03-.55-6.05-.72-9.11-.3-3.2,.44-6.4,.99-9.65,.78-1.45-.1-2.9-.2-4.35-.19-3.27,.03-6.54-.09-9.79,.06-2.23,.1-4.21-.48-6.13-1.47-4.89-2.52-10.23-3.32-15.58-4.11-3.22-.48-6.49,.23-9.69-.51-.06-.01-.13-.01-.18,.01-.98,.45-2-.08-2.99,.1-.22,.04-.42-.07-.54-.25-.82-1.29-2.19-1.47-3.49-1.89-1.31-.42-2.65-.82-3.84-1.54-.32-.19-.62-.21-.93-.09-.82,.32-1.45,.02-1.98-.58-2.19-2.43-3.21-5.27-3.16-8.54,.04-2.58,1.31-4.66,2.77-6.58,1.44-1.89,2.66-3.82,3.28-6.13,.59-2.2,.81-4.42,.75-6.69-.06-2.63-.69-5.1-1.78-7.46-.61-1.32-1.68-2.39-2.02-3.9-.17-.77-.96-1.25-1.72-1.58-.44-.19-.86-.42-1.31-.56-1.64-.51-2.99-1.74-4.74-1.98-.3-.04-.6-.22-.66-.53-.29-1.41-1.4-1.8-2.57-2.15-.24-.07-.59-.02-.61-.39-.03-.68-.45-.61-.87-.46-.77,.26-1.49,.22-2.25-.07-.39-.15-.83-.39-1.29-.19-.48,.21-.94,.1-1.38-.08-.86-.36-1.74-.37-2.62-.17-1.83,.42-3.59,1.02-5.23,1.95-.3,.17-.52,.37-.58,.73-.11,.61-.2,1.26-1.08,.66-.11-.08-.35,0-.52,.04-1.75,.4-2.86,1.67-3.92,2.97-.51,.63-.5,1.41,0,2.07,.91,1.21,.97,3.07,.35,4.44-.58,1.28-1.39,2.4-2.09,3.6-1.02,1.74-1.07,3.54-.26,5.37,.18,.41,.22,.79,.04,1.19-.51,1.14-.94,2.31-1.54,3.4-.69,1.27-1.18,2.54-1.25,4.02-.07,1.51-.05,1.74,1.35,2.25,.63,.23,1.13,.55,1.21,1.27,.18,1.7,1.33,3.3,.54,5.11-.03,.07,0,.19,.03,.26,.69,1.32,.33,2.74,.32,4.11-.01,1.34,.64,2.27,1.99,2.4,2.01,.19,4.02,.29,6.03-.08,1-.18,1.46,.16,1.57,1.17,.04,.4-.07,.82-.1,1.23-.07,.76-.45,1.13-1.24,1.02-.47-.06-.91,.04-1.19,.44-.49,.7-1.22,1.02-1.99,1.27-1.3,.42-2.64,.73-3.88,1.28-.78,.34-1.42,.6-2.23,.18-.39-.2-.95-.29-1.27,.06-.89,.97-2.11,.66-3.05,.55-1.78-.2-3.55-.59-5.35-.81-3.71-.45-7.39-.34-11.08,.17-2.92,.41-5.72,1.3-8.58,1.96-.68,.16-1.53,.17-1.98,.85-.29,.43-.62,.48-1.06,.43-2.3-.27-4.55-.81-6.78-1.41-2.03-.55-4.05-1.06-6.19-1.06-1.47,0-2.83,.51-4.28,.62-1.2,.09-1.82-.14-2.43-1.2-.17-.3-.46-.36-.73-.46-1.07-.37-2.12-.79-3.2-1.09-2.31-.64-4.6-1.26-7.07-1.1-3,.2-5.98,.92-9.01,.59-.14-.02-.3,.02-.44,.05-1.54,.3-3.1,.22-4.65,.17-.77-.03-1.52-.09-2.28,.16-.8,.26-1.66,.25-2.46,.03-2.4-.68-4.9-.83-7.34-1.23-2.56-.42-5.21-.15-7.81-.18-1.95-.02-3.92,.13-5.86,.02-1.49-.08-2.96,.27-4.43,.02-1.01-.17-2.02-.19-3.02-.09-2.2,.23-4.38,.21-6.56-.15-.36-.06-.71,0-1.06,.03-2.3,.16-4.3,1.47-6.59,1.73-.67,.07-1.41,.04-1.99,.41-1.26,.8-2.59,.67-3.96,.51-1.08-.13-2.16-.38-3.27-.08-.85,.23-1.65,.9-1.62,1.56,.05,.92,.81,1.08,1.52,1.22,2.21,.44,4.45,.78,6.63,1.31,2.7,.66,5.41,1.12,8.18,.91,1.19-.09,2.33-.01,3.52,.16,2.17,.32,4.36,.35,6.52,.85,1.45,.33,2.94,.33,4.41-.03,.52-.13,1.03-.24,1.53-.43,1.62-.58,3.03,.12,4.37,.9,2.18,1.26,4.27,2.7,6.66,3.55,2.54,.91,5.11,1.74,7.64,2.69,2.36,.88,4.8,1.29,7.28,1.58,2.74,.32,5.51,.15,8.24,.65,.54,.1,1.13,.05,1.69,0,3.33-.32,6.65-.82,10-.87,2.02-.03,4.03,.29,5.81,1.37,1.88,1.14,3.84,2.11,5.94,2.8,2.31,.76,4.6,1.6,6.82,2.59,3.03,1.35,6.2,1.99,9.51,1.99,0,0,3.96,1.51,7,.97"/>
  <path class="cls-1" d="M176.59,175.35c-.45-.51-1.01-.79-1.67-.94-3.03-.71-6.05-1.5-8.97-2.62-1.99-.77-3.9-.63-5.85,.3-4.91,2.34-9.46,5.34-14.24,7.9l-17.55,1.64c-.57-.47-4.84,.28-6.31,.62-3.2,.74-6.44,.45-9.67,.38-2.37-.05-4.73-.28-7.09-.47-2.04-.16-4.09-.12-6.14-.18-2.19-.06-4.31,.26-6.45,.65-1.16,.21-2.2,.68-3.24,1.21-.56,.29-.7,.68-.61,1.31,.37,2.52,.9,5.02,1.02,7.58,.19,4.07,.07,8.12-.89,12.1-.48,1.97-.66,3.98-.99,5.97-.47,2.89-1.12,5.77-1.38,8.69-.41,4.6-1.19,9.16-1.3,13.8-.09,3.58,.09,7.1,.78,10.61,.37,1.88,1.08,3.61,2.05,5.28,1.1,1.88,1.29,4.9-.51,6.5-1.03,.92-2.27,1.28-3.6,1.2-1.05-.06-2.07-.14-3.06,.3-.39,.18-.85,.24-1.22,.09-.87-.35-1.68-.18-2.51,.08-.46,.14-.93,.17-1.41,.06-1.06-.26-2.13-.02-3.19-.03-3.23-.04-6.46-.09-9.7,.07-3.67,.18-7.3,.82-11,.61-2.7-.16-5.38,.4-8.08,.34-1.52-.03-1.6-.07-1.96-1.55-.08-.33-.19-.61-.47-.82-.54-.41-.5-.98-.31-1.54,.19-.56,.65-.89,1.23-.87,1.61,.07,3.19-.28,4.78-.35,1.1-.05,2.08-.38,3.03-.9,1.67-.89,3.28-1.85,5.05-2.6,2.99-1.26,6.02-2.47,8.83-4.09,1.35-.78,2.81-1.41,4.01-2.46,1.95-1.71,2.51-4.11,3.3-6.4,.71-2.04,.93-4.17,.96-6.31,.06-4.66-.03-9.3-.59-13.94-.42-3.44-.98-6.86-1.29-10.32-.2-2.23-.63-4.45-.63-6.71,0-2.55-.09-5.11,.1-7.64,.13-1.81-.2-3.54-.32-5.31-.11-1.56-.48-3.09,0-4.67,.18-.59,.01-1.29,.02-1.94,.06-2.67,.68-5.28,.84-7.94,.06-1.08,.92-1.84,1.46-2.71,.23-.38,.59-.7,.75-1.1,1.06-2.78,3.65-3.59,6.01-4.63,1-.44,1.98-.92,2.96-1.41,.45-.23,.88-.52,1.37-.62,2.22-.44,3.82-2.06,5.76-3.02,1.11-.55,2.26-1.09,3.26-1.81,2.05-1.48,4.49-2.09,6.69-3.23,.65-.34,1.39-.3,2.07-.48,2.18-.55,4.39-1.03,6.54-1.7,.96-.3,1.89-.78,2.86-1.12,1.83-.64,3.71-1.04,5.6-1.4,1.56-.3,3.01-.9,4.4-1.63,.54-.29,1.06-.47,1.69-.34,.66,.14,1.3-.02,1.84-.46,.33-.27,.7-.51,1.12-.5,1.34,.01,2.63-.41,3.97-.45,.89-.03,1.76-.24,2.31-1.09,.3-.47,.39-.88,.14-1.41-.41-.88-.24-1.58,.59-2.05,.71-.4,.82-.92,.88-1.66,.2-2.63,.41-5.29,1.18-7.81,.66-2.15,.6-4.31,.32-6.42-.47-3.53-.79-7.07-1.45-10.58-.92-4.87-1.61-9.77-3.43-14.43-1.14-2.91-1.59-6.01-2.2-9.07-.55-2.79-1.31-5.55-2.58-8.12-.54-1.1-1.58-1.75-2.55-2.43-2.36-1.65-5-2.71-7.73-3.55-.7-.22-1.35-.22-2.07,.08"/>
</svg>